<?xml version="1.0" encoding="utf-8"?>
<!-- Generator: Adobe Illustrator 23.0.6, SVG Export Plug-In . SVG Version: 6.00 Build 0)  -->
<svg version="1.1" id="Ebene_1" xmlns:svg="http://www.w3.org/2000/svg"
	 xmlns="http://www.w3.org/2000/svg" xmlns:xlink="http://www.w3.org/1999/xlink" x="0px" y="0px" viewBox="0 0 453.1 161.4"
	 style="enable-background:new 0 0 453.1 161.4;" xml:space="preserve">
<style type="text/css">
	.st0{fill-rule:evenodd;clip-rule:evenodd;fill:#FFFFFF;}
</style>
<g>
	<path class="st0" d="M183.6,83.7c-3.5-0.4-5.6,10.4-6.9,24.5c-1.2,14.1-0.8,26.7,2.8,26c3.3,0.6,5.4-11.2,6.6-25.3
		C187.4,94.8,186.6,84.7,183.6,83.7z"/>
	<path class="st0" d="M363,32.4c0,0-5.9,0.8-6.9,14.4l7.9-4.1C363.9,42.6,365.3,33,363,32.4z"/>
	<path class="st0" d="M394.6,42.1c-3.5-5.3-8.5,9.8-8.5,9.8l6.3-2.4C395.8,48.5,394.6,42.1,394.6,42.1L394.6,42.1z"/>
	<path class="st0" d="M452.9,109.4c0.4-12.5-2-26.9-9.3-42.7c-16.2-36.9-56.4-50.4-56.4-50.4c-62.1-26.9-149.7,4.3-149.7,4.3
		c-67.8,23.8-102.8,22.3-102.8,22.3C70.1,49.2,46.9,0,46.9,0c-11.7,22.3,6.6,41.8,6.6,41.8c8.6,9.4,2,12.3,2,12.3
		C46.9,63,38.1,39.5,38.1,39.5C23.5,1.7,0,5.4,0,5.4c17.7,17.5,14,59.3,14,59.3c2,40.9,37.2,34.9,37.2,34.9L69,96.8
		c27.8-5.4,26.6,4.9,26.6,4.9c0.6,6.3-3.7,6.6-3.7,6.6C77.3,110.2,69,99,69,99c-6.3,1.1-26,3.7-26,3.7c51.8,67,152,53.5,152,53.5
		c32.6-2.3,84.4-26.6,84.4-26.6c8.9-4.9,33.5-14.9,33.5-14.9c24.9-14,58.4-20.3,58.4-20.3c36.9-8,55,15.5,55,15.5
		c19.8,28.9,6.6,51.5,6.6,51.5v0C432.8,161.4,455.1,145.1,452.9,109.4z M133.3,142.9c0,0,13.8-34.2,3.5-39.3c0,0-11.4-3.3-13.4,37.4
		c0,0-22.4-5.9-31.3-12.6c0,0,22.8-10.4,26.5-26.7c0,0,6.3-14.6-5.7-26.4c0,0-3.5-3.5-11-7.3c0,0-11.8-7.3-12.6-18.1
		c0,0,27.3,7.1,49,5.7c0,0-9.8,26.9-0.8,30.9c0,0,11.4,4.1,9.4-31.1l36.8-6.1c0,0,1.4,3.9-10.6,14.9c0,0-11,8.3-16.7,28.9h0
		c0,0-8.5,33.4,6.3,53.1C162.8,146.3,148,147.7,133.3,142.9z M202.1,111.1c-2.6,23-11.2,38.4-23.8,36.6c-13.4-1-22.4-22.4-18.7-42.7
		c2.9-20.3,12-35.8,24.6-34v0C198.6,71,204.1,90.8,202.1,111.1z M231.4,120.3c-3.3,23.4-18.5,22-18.5,22c-6.7-1.8-7.5-14.9-7.5-14.9
		c0-8.1,1.4-17.1,1.4-17.1L207,92c-1.8-12.8-7.1-23-13.8-26.2l0.6-0.8c22.2-4.9,25.4,1.4,25.4,1.4c1.4,3.5,0.6,13.4,0.6,13.4
		c4.3,1,11.4-2,11.4-2c0.2,9.2-12,11.6-12,11.6c-0.4,6.9,0.2,16.7,0.2,16.7c0.6,3.1,3.9,3.3,3.9,3.3v0c2.2-0.2,3.7-2.2,3.7-2.2
		l4.3-4.9V120.3z M283.3,114.4c-10.6-9.2-11.6-33.2-11.6-33.2c-8.3,23.8,1.6,37.6,1.6,37.6l-29.7,12.8c7.9-19.7,4.9-33.4,4.9-33.4
		c-0.8-16.7-9.6-24.6-9.6-24.6c-5.9-6.9-14.2-10.2-14.2-10.2c-18.9-12-17.7-19.7-17.7-19.7l32.4-8.8c0,7.5,6.9,13,6.9,13
		c5.5,2.8,9.2,6.5,9.2,6.5c9.8,7.7,4.3,24,4.3,24c-1,5.1,0.6,13.2,0.6,13.2h0.8l2-8.5c0.8-4.1,3.2-10,3.2-10
		c3.5-8.5-3.2-17.9-3.2-17.9l12.8-4.3c8.1,5.3,5.9,17.7,5.9,17.7c-2,5.7,0.4,14.9,0.4,14.9c1.8-10,3.5-12,3.5-12
		c4.5-7.5,1.2-16.1,1.2-16.1c-2.4-6.5-12.6-10-12.6-10c-12.6-3.5-18.1-16.5-18.1-16.5l35.2-7.7c8.8,6.9,12.6,18.7,12.6,18.7
		c8.5,19.5-2.9,37.6-2.9,37.6l0,0c-8.3,13.8-5.1,31.1-5.1,31.1L283.3,114.4z M326.2,96.1c0,0,5.1-36.4-1-36.2c0,0-7.7-2.8-5.5,38.1
		l-19.3,8.3c0,0,12-36,10.4-51.5c1.4-19.7-15.1-34-15.1-34s12.8-2.6,27.9-2.6c0,0-2.7,30.9,2.2,27.9c0,0,6.5,1,6.3-27.3
		c0,0,13.2-1.2,20.8,1.4c0,0-12.2,10.8-14.9,31.5l0,0c0,0-4.1,20.8,7.3,37.4L326.2,96.1z M359,70.8L359,70.8
		c4.1,2.4,11.4-5.3,11.4-5.3c1.4,19.7-13,22.2-13,22.2C341.5,88.3,342.1,60,342.1,60c1.2-39.9,24.6-40.3,24.6-40.3
		c14,3.5,8.5,27.3,8.5,27.3c-9.8,2.9-20.6,11.4-20.6,11.4C353.1,70.6,359,70.8,359,70.8z M383.2,85.7c0,0-12.2,1.6-8.8-23.8
		c0,0,4.3-30.9,18.7-31.1c0,0,13.8-1.2,7.5,23.4c0,0-12,3.5-15.7,6.3c0,0-1.8,17.9,13.2,6.3v0C398,66.8,398.9,84.1,383.2,85.7z
		 M395.4,84.5c0,0,11.2-11.4,10.6-46.6l13.2,11.2c0,0-13.6,15.1-10.6,27.7l6.3,2.8L411.1,90L395.4,84.5z M433.7,74.1L433.7,74.1
		c-8.3-7.3-4.1,6.5-4.1,6.5c5.7,6.3,2,12.6,2,12.6c-8.5,9.2-18.5-2-18.5-2l3.9-8.8c4.1,5.5,6.9,3.3,6.9,3.3c2.6-3.3-3-9.2-3-9.2
		c-6.7-16.3,5.9-15.7,5.9-15.7c5.1,0.2,9.4,8.1,9.4,8.1L433.7,74.1z"/>
</g>
</svg>
